<svg width="21" height="32" viewBox="0 0 21 32" fill="none" xmlns="http://www.w3.org/2000/svg">
<rect width="21" height="32" rx="10.5" fill="#DCEAD7"/>
<path d="M10.7039 9.95898C10.9744 9.95898 11.1979 10.16 11.2333 10.4208L11.2382 10.4933L11.2378 19.886L14.6172 16.4927C14.8254 16.2836 15.1637 16.2828 15.3728 16.4911C15.563 16.6804 15.5808 16.9772 15.4261 17.1867L15.3745 17.2467L11.0828 21.5569C11.0553 21.5845 11.0256 21.6084 10.9943 21.6287C10.9848 21.6345 10.9752 21.6403 10.9653 21.6459C10.9569 21.651 10.9481 21.6556 10.9392 21.6599C10.9263 21.6659 10.913 21.6718 10.8994 21.6772C10.8889 21.6815 10.8787 21.6852 10.8684 21.6885C10.8557 21.6924 10.8421 21.6962 10.8283 21.6995C10.8187 21.702 10.8094 21.7039 10.8001 21.7056C10.7863 21.708 10.7719 21.71 10.7574 21.7114C10.7464 21.7127 10.7354 21.7134 10.7245 21.7138C10.7178 21.714 10.7109 21.7141 10.7039 21.7141L10.6832 21.7138C10.6727 21.7134 10.6622 21.7127 10.6518 21.7117L10.7039 21.7141C10.6702 21.7141 10.6372 21.711 10.6052 21.705C10.5975 21.7036 10.5897 21.702 10.5819 21.7001C10.5658 21.6963 10.5503 21.6919 10.5351 21.6869C10.5276 21.6844 10.5195 21.6815 10.5115 21.6784C10.4954 21.6722 10.4801 21.6654 10.4652 21.6579C10.4582 21.6545 10.4508 21.6506 10.4435 21.6465C10.4317 21.6398 10.4204 21.633 10.4094 21.6257C10.4016 21.6206 10.3935 21.6149 10.3856 21.6089L10.3794 21.6043C10.3606 21.5899 10.3428 21.5743 10.326 21.5576L10.3256 21.5569L6.03316 17.2467C5.82493 17.0376 5.82563 16.6993 6.03472 16.4911C6.22481 16.3018 6.52169 16.2852 6.73055 16.4408L6.79037 16.4927L10.1691 19.8846L10.1695 10.4933C10.1695 10.1982 10.4088 9.95898 10.7039 9.95898Z" fill="#4A7337"/>
</svg>
