<svg width="72" height="103" viewBox="0 0 72 103" fill="none" xmlns="http://www.w3.org/2000/svg">
<path d="M63.6003 0H23.2473C21.2819 0.00160121 19.3974 0.783738 18.0077 2.17341C16.6172 3.56316 15.8357 5.44776 15.8335 7.41377V49.2281C12.5985 51.6546 9.02389 53.5927 5.22447 54.9799C4.22458 55.3666 3.35758 56.0351 2.7291 56.9045C2.10067 57.7731 1.73802 58.8058 1.68357 59.877C1.45381 64.8909 0.943053 74.435 0.00800554 82.0271C0.00240161 82.0743 0 82.1207 0 82.1672C0.0248164 84.4439 0.337826 86.7079 0.931051 88.9054C1.23367 89.9638 1.41619 91.0532 1.47382 92.1525C1.20563 95.0418 0.722891 97.9077 0.0312122 100.726C-0.112087 101.342 0.268986 101.958 0.883812 102.103C0.971072 102.124 1.05993 102.135 1.1488 102.135C1.68038 102.134 2.1423 101.769 2.26477 101.251C3.00209 98.264 3.50483 95.2235 3.769 92.1582C3.71617 90.8765 3.51283 89.6052 3.16219 88.3709C2.61782 86.3703 2.32722 84.3098 2.29519 82.2362C3.23423 74.5756 3.7514 65.0059 3.97634 59.9713L3.97714 59.9721C4.01077 59.3444 4.22531 58.74 4.59517 58.2317C4.96503 57.7233 5.47418 57.3334 6.06097 57.1085C9.50092 55.8108 12.7792 54.1225 15.8334 52.0753V64.4247C15.0184 63.8739 14.2619 63.3319 13.6311 62.8476C13.1284 62.4746 12.4183 62.5738 12.0372 63.0702C11.6553 63.5673 11.7426 64.2782 12.2334 64.6681C13.0627 65.3053 20.455 70.8411 24.3618 70.7139C26.958 70.5994 31.7629 68.2785 35.3375 66.3525C36.6168 65.668 38.0466 65.311 39.498 65.3118H44.443C45.5926 65.3134 46.6941 65.7705 47.5075 66.5831C48.3201 67.3964 48.7772 68.498 48.778 69.6475V70.4385C48.7772 71.3103 48.0703 72.0172 47.1985 72.0188H40.8941C39.2105 72.0236 37.5902 72.6656 36.3614 73.8176C33.0454 76.8934 27.3737 81.0377 27.3167 81.0787C27.0749 81.2524 26.91 81.5142 26.8572 81.8072C26.1119 85.8052 24.3923 89.5573 21.8496 92.7325C21.6431 93.0103 21.463 93.252 21.3181 93.4602C20.0188 95.3159 20.1004 100.09 20.1292 101.028C20.1484 101.647 20.6568 102.14 21.2772 102.14H21.3125C21.9465 102.121 22.4444 101.591 22.4244 100.957C22.3628 98.94 22.5621 95.6882 23.2002 94.7764C23.3331 94.585 23.5012 94.3609 23.6925 94.1039C24.8997 92.522 25.9598 90.8312 26.8547 89.0539H63.6008C65.5662 89.0515 67.4506 88.2702 68.8404 86.8805C70.2301 85.49 71.0123 83.6056 71.0146 81.6402V7.41433C71.0122 5.44816 70.23 3.56368 68.8404 2.17397C67.4507 0.784258 65.5655 0.00143459 63.6003 0ZM68.7191 81.6447C68.7175 83.0017 68.1772 84.3026 67.2181 85.2624C66.2582 86.2222 64.9574 86.7618 63.6005 86.7634H27.8668C28.3736 85.4329 28.7658 84.0606 29.038 82.6629C30.3749 81.6758 34.9662 78.2431 37.921 75.5012C38.7264 74.7447 39.7887 74.3204 40.8935 74.3156H47.1979C48.225 74.3148 49.2105 73.9057 49.9366 73.1788C50.6635 72.4527 51.0717 71.4672 51.0725 70.4402V69.6492C51.0709 67.8912 50.3713 66.206 49.1288 64.9628C47.8855 63.7196 46.2004 63.0199 44.4424 63.0183H39.4973C37.6641 63.0167 35.8596 63.4682 34.2441 64.3336C29.5585 66.8585 25.9167 68.3509 24.2523 68.4203C22.8898 68.4523 20.473 67.2947 18.1242 65.8875V7.41344C18.1258 6.0565 18.6653 4.75473 19.6252 3.79581C20.5843 2.83594 21.8851 2.29637 23.2428 2.29477H63.5938C64.9508 2.29638 66.2517 2.83594 67.2115 3.79581C68.1713 4.75488 68.7109 6.05652 68.7125 7.41344L68.7191 81.6447Z" fill="#80848F"/>
<path d="M48.8077 8.56278H51.0596C51.6928 8.56278 52.2068 8.04883 52.2068 7.41478C52.2068 6.78155 51.6928 6.26758 51.0596 6.26758H48.8077C48.1736 6.26758 47.6597 6.78153 47.6597 7.41478C47.6597 8.04883 48.1736 8.56278 48.8077 8.56278Z" fill="#80848F"/>
<path d="M35.7815 8.56278H45.0855C45.7195 8.56278 46.2335 8.04883 46.2335 7.41478C46.2335 6.78155 45.7195 6.26758 45.0855 6.26758H35.7815C35.1475 6.26758 34.6335 6.78153 34.6335 7.41478C34.6335 8.04883 35.1475 8.56278 35.7815 8.56278Z" fill="#80848F"/>
<path d="M60.4335 20H57.0335C56.7205 20 56.4668 20.2537 56.4668 20.5667C56.4668 20.8796 56.7205 21.1333 57.0335 21.1333H59.8668V23.9667C59.8668 24.2796 60.1205 24.5333 60.4335 24.5333C60.7464 24.5333 61.0001 24.2796 61.0001 23.9667V20.5667C61.0001 20.4164 60.9404 20.2722 60.8342 20.166C60.7279 20.0597 60.5837 20 60.4335 20Z" fill="#4A7337"/>
<path d="M27.5667 24.5333C27.7169 24.5333 27.8611 24.4736 27.9674 24.3674C28.0736 24.2611 28.1333 24.1169 28.1333 23.9667V21.1333H30.9667C31.2796 21.1333 31.5333 20.8796 31.5333 20.5667C31.5333 20.2537 31.2796 20 30.9667 20H27.5667C27.2537 20 27 20.2537 27 20.5667V23.9667C27 24.1169 27.0597 24.2611 27.166 24.3674C27.2722 24.4736 27.4164 24.5333 27.5667 24.5333Z" fill="#4A7337"/>
<path d="M60.4335 49.4668C60.1205 49.4668 59.8668 49.7205 59.8668 50.0335V52.8668H57.0335C56.7205 52.8668 56.4668 53.1205 56.4668 53.4335C56.4668 53.7464 56.7205 54.0001 57.0335 54.0001H60.4335C60.5837 54.0001 60.7279 53.9404 60.8342 53.8342C60.9404 53.7279 61.0001 53.5837 61.0001 53.4335V50.0335C61.0001 49.8832 60.9404 49.739 60.8342 49.6327C60.7279 49.5265 60.5837 49.4668 60.4335 49.4668Z" fill="#4A7337"/>
<path d="M27.5667 54.0001H30.9667C31.2796 54.0001 31.5333 53.7464 31.5333 53.4335C31.5333 53.1205 31.2796 52.8668 30.9667 52.8668H28.1333V50.0335C28.1333 49.7205 27.8796 49.4668 27.5667 49.4668C27.2537 49.4668 27 49.7205 27 50.0335V53.4335C27 53.5837 27.0597 53.7279 27.166 53.8342C27.2722 53.9404 27.4164 54.0001 27.5667 54.0001Z" fill="#4A7337"/>
<path d="M29.2666 22.8333V33.0333C29.2666 33.1835 29.3263 33.3277 29.4326 33.434C29.5388 33.5402 29.683 33.5999 29.8333 33.5999H40.0333C40.1835 33.5999 40.3277 33.5402 40.434 33.434C40.5402 33.3277 40.5999 33.1835 40.5999 33.0333V22.8333C40.5999 22.683 40.5402 22.5388 40.434 22.4326C40.3277 22.3263 40.1835 22.2666 40.0333 22.2666H29.8333C29.5203 22.2666 29.2666 22.5203 29.2666 22.8333ZM30.3999 23.3999H39.4666V32.4666H30.3999V23.3999Z" fill="#4A7337"/>
<path d="M37.7665 24.5332H32.0999C31.7869 24.5332 31.5332 24.7869 31.5332 25.0999V30.7665C31.5332 30.9168 31.5929 31.061 31.6992 31.1673C31.8054 31.2735 31.9496 31.3332 32.0999 31.3332H37.7665C37.9168 31.3332 38.061 31.2735 38.1673 31.1673C38.2735 31.061 38.3332 30.9168 38.3332 30.7665V25.0999C38.3332 24.9496 38.2735 24.8054 38.1673 24.6992C38.061 24.5929 37.9168 24.5332 37.7665 24.5332ZM37.1999 30.1999H32.6665V25.6665H37.1999V30.1999Z" fill="#4A7337"/>
<path d="M37.7665 42.667H32.0999C31.7869 42.667 31.5332 42.9207 31.5332 43.2337V48.9003C31.5332 49.0506 31.5929 49.1948 31.6992 49.301C31.8054 49.4073 31.9496 49.467 32.0999 49.467H37.7665C37.9168 49.467 38.061 49.4073 38.1673 49.301C38.2735 49.1948 38.3332 49.0506 38.3332 48.9003V43.2337C38.3332 43.0834 38.2735 42.9392 38.1673 42.8329C38.061 42.7267 37.9168 42.667 37.7665 42.667ZM37.1999 48.3337H32.6665V43.8003H37.1999V48.3337Z" fill="#4A7337"/>
<path d="M55.8998 24.5332H50.2332C49.9202 24.5332 49.6665 24.7869 49.6665 25.0999V30.7665C49.6665 30.9168 49.7262 31.061 49.8325 31.1673C49.9387 31.2735 50.0829 31.3332 50.2332 31.3332H55.8998C56.0501 31.3332 56.1943 31.2735 56.3006 31.1673C56.4068 31.061 56.4665 30.9168 56.4665 30.7665V25.0999C56.4665 24.9496 56.4068 24.8054 56.3006 24.6992C56.1943 24.5929 56.0501 24.5332 55.8998 24.5332ZM55.3332 30.1999H50.7998V25.6665H55.3332V30.1999Z" fill="#4A7337"/>
<path d="M47.9668 33.5643H58.1668C58.3171 33.5643 58.4613 33.5046 58.5675 33.3984C58.6738 33.2921 58.7335 33.1479 58.7335 32.9976V22.8333C58.7335 22.683 58.6738 22.5388 58.5675 22.4326C58.4613 22.3263 58.3171 22.2666 58.1668 22.2666H47.9668C47.6539 22.2666 47.4001 22.5203 47.4001 22.8333V32.9976C47.4001 33.1479 47.4598 33.2921 47.5661 33.3984C47.6723 33.5046 47.8165 33.5643 47.9668 33.5643ZM48.5335 23.3999H57.6001V32.431H48.5335V23.3999Z" fill="#4A7337"/>
<path d="M29.2666 51.1671C29.2666 51.3173 29.3263 51.4615 29.4326 51.5678C29.5388 51.674 29.683 51.7337 29.8333 51.7337H40.0333C40.1835 51.7337 40.3277 51.674 40.434 51.5678C40.5402 51.4615 40.5999 51.3173 40.5999 51.1671V40.9671C40.5999 40.8168 40.5402 40.6726 40.434 40.5663C40.3277 40.4601 40.1835 40.4004 40.0333 40.4004H29.8333C29.5203 40.4004 29.2666 40.6541 29.2666 40.9671V51.1671ZM30.3999 41.5337H39.4666V50.6004H30.3999V41.5337Z" fill="#4A7337"/>
<path d="M42.3001 26.7999C42.4503 26.7999 42.5945 26.7402 42.7008 26.634C42.807 26.5277 42.8667 26.3835 42.8667 26.2333V23.3999H43.4334C43.7463 23.3999 44.0001 23.1462 44.0001 22.8333C44.0001 22.5203 43.7463 22.2666 43.4334 22.2666H42.3001C41.9871 22.2666 41.7334 22.5203 41.7334 22.8333V26.2333C41.7334 26.3835 41.7931 26.5277 41.8994 26.634C42.0056 26.7402 42.1498 26.7999 42.3001 26.7999Z" fill="#4A7337"/>
<path d="M46.2666 22.8333C46.2666 23.1462 46.0129 23.3999 45.7 23.3999C45.387 23.3999 45.1333 23.1462 45.1333 22.8333C45.1333 22.5203 45.387 22.2666 45.7 22.2666C46.0129 22.2666 46.2666 22.5203 46.2666 22.8333Z" fill="#4A7337"/>
<path d="M44.5667 26.7999H45.7C45.8503 26.7999 45.9945 26.7402 46.1007 26.6339C46.207 26.5277 46.2667 26.3835 46.2667 26.2332V25.0999C46.2667 24.7869 46.0129 24.5332 45.7 24.5332C45.3871 24.5332 45.1333 24.7869 45.1333 25.0999V25.6665H44.5667C44.2537 25.6665 44 25.9203 44 26.2332C44 26.5461 44.2537 26.7999 44.5667 26.7999Z" fill="#4A7337"/>
<path d="M45.7 28.5H44.5667C44.2537 28.5 44 28.7537 44 29.0667V31.3333C44 31.6463 44.2537 31.9 44.5667 31.9C44.8796 31.9 45.1333 31.6463 45.1333 31.3333V29.6333H45.7C46.0129 29.6333 46.2667 29.3796 46.2667 29.0667C46.2667 28.7537 46.0129 28.5 45.7 28.5Z" fill="#4A7337"/>
<path d="M42.3001 33.6003H45.7001C46.013 33.6003 46.2667 33.3465 46.2667 33.0336C46.2667 32.7207 46.013 32.4669 45.7001 32.4669H42.8667V28.5003C42.8667 28.1873 42.613 27.9336 42.3001 27.9336C41.9871 27.9336 41.7334 28.1873 41.7334 28.5003V33.0336C41.7334 33.1839 41.7931 33.3281 41.8994 33.4343C42.0056 33.5406 42.1498 33.6003 42.3001 33.6003Z" fill="#4A7337"/>
<path d="M46.8333 47.2002C46.5204 47.2002 46.2667 47.4539 46.2667 47.7669V50.6002H44.5667C44.2537 50.6002 44 50.8539 44 51.1669C44 51.4798 44.2537 51.7335 44.5667 51.7335H46.8333C46.9836 51.7335 47.1278 51.6738 47.234 51.5676C47.3403 51.4613 47.4 51.3171 47.4 51.1669V47.7669C47.4 47.6166 47.3403 47.4724 47.234 47.3661C47.1278 47.2599 46.9836 47.2002 46.8333 47.2002Z" fill="#4A7337"/>
<path d="M42.8667 51.1663C42.8667 51.4792 42.613 51.7329 42.3001 51.7329C41.9871 51.7329 41.7334 51.4792 41.7334 51.1663C41.7334 50.8533 41.9871 50.5996 42.3001 50.5996C42.613 50.5996 42.8667 50.8533 42.8667 51.1663Z" fill="#4A7337"/>
<path d="M42.3001 49.4669C42.4503 49.4669 42.5945 49.4072 42.7008 49.3009C42.807 49.1947 42.8667 49.0505 42.8667 48.9002V48.3335H44.5667C44.8797 48.3335 45.1334 48.0798 45.1334 47.7669C45.1334 47.4539 44.8797 47.2002 44.5667 47.2002H42.3001C41.9871 47.2002 41.7334 47.4539 41.7334 47.7669V48.9002C41.7334 49.0505 41.7931 49.1947 41.8994 49.3009C42.0056 49.4072 42.1498 49.4669 42.3001 49.4669Z" fill="#4A7337"/>
<path d="M42.3001 41.5333C42.4503 41.5333 42.5945 41.4736 42.7008 41.3674C42.807 41.2611 42.8667 41.1169 42.8667 40.9667V38.1333H44.0001C44.313 38.1333 44.5667 37.8796 44.5667 37.5667C44.5667 37.2537 44.313 37 44.0001 37H42.3001C41.9871 37 41.7334 37.2537 41.7334 37.5667V40.9667C41.7334 41.1169 41.7931 41.2611 41.8994 41.3674C42.0056 41.4736 42.1498 41.5333 42.3001 41.5333Z" fill="#4A7337"/>
<path d="M42.3001 35.8667H45.7001V38.7001C45.7001 39.013 45.9538 39.2667 46.2667 39.2667C46.5797 39.2667 46.8334 39.013 46.8334 38.7001V35.3001C46.8334 35.1498 46.7737 35.0056 46.6674 34.8994C46.5612 34.7931 46.417 34.7334 46.2667 34.7334H42.3001C41.9871 34.7334 41.7334 34.9871 41.7334 35.3001C41.7334 35.613 41.9871 35.8667 42.3001 35.8667Z" fill="#4A7337"/>
<path d="M29.2666 38.7C29.2666 38.8503 29.3263 38.9945 29.4326 39.1007C29.5388 39.207 29.683 39.2667 29.8333 39.2667H33.2333C33.5462 39.2667 33.7999 39.0129 33.7999 38.7C33.7999 38.3871 33.5462 38.1333 33.2333 38.1333H30.3999V37.5667C30.3999 37.2537 30.1462 37 29.8333 37C29.5203 37 29.2666 37.2537 29.2666 37.5667V38.7Z" fill="#4A7337"/>
<path d="M32.0999 37.0001C32.2502 37.0001 32.3944 36.9404 32.5006 36.8341C32.6069 36.7279 32.6666 36.5837 32.6666 36.4334V35.3001C32.6666 35.1498 32.6069 35.0056 32.5006 34.8994C32.3944 34.7931 32.2502 34.7334 32.0999 34.7334H29.8333C29.5203 34.7334 29.2666 34.9871 29.2666 35.3001C29.2666 35.613 29.5203 35.8667 29.8333 35.8667H31.5333V36.4334C31.5333 36.5837 31.593 36.7279 31.6992 36.8341C31.8055 36.9404 31.9497 37.0001 32.0999 37.0001Z" fill="#4A7337"/>
<path d="M34.3667 34.7334C34.0538 34.7334 33.8 34.9871 33.8 35.3001V36.4334C33.8 36.5837 33.8598 36.7279 33.966 36.8341C34.0723 36.9404 34.2164 37.0001 34.3667 37.0001H37.7667C38.0796 37.0001 38.3334 36.7463 38.3334 36.4334C38.3334 36.1205 38.0796 35.8667 37.7667 35.8667H34.9334V35.3001C34.9334 35.1498 34.8737 35.0056 34.7674 34.8994C34.6612 34.7931 34.517 34.7334 34.3667 34.7334Z" fill="#4A7337"/>
<path d="M40.6 35.3001C40.6 34.9871 40.3463 34.7334 40.0333 34.7334C39.7204 34.7334 39.4667 34.9871 39.4667 35.3001V38.1334H35.5C35.1871 38.1334 34.9333 38.3871 34.9333 38.7001C34.9333 39.013 35.1871 39.2667 35.5 39.2667H40.0333C40.1836 39.2667 40.3278 39.207 40.4341 39.1008C40.5403 38.9945 40.6 38.8503 40.6 38.7001V35.3001Z" fill="#4A7337"/>
<path d="M58.7333 35.3001C58.7333 35.1498 58.6736 35.0056 58.5673 34.8994C58.4611 34.7931 58.3169 34.7334 58.1666 34.7334H54.7666C54.4537 34.7334 54.2 34.9871 54.2 35.3001C54.2 35.613 54.4537 35.8667 54.7666 35.8667H57.6V36.4334C57.6 36.7463 57.8537 37.0001 58.1666 37.0001C58.4795 37.0001 58.7333 36.7463 58.7333 36.4334V35.3001Z" fill="#4A7337"/>
<path d="M49.1001 40.9671C49.1001 41.28 48.8464 41.5337 48.5335 41.5337C48.2205 41.5337 47.9668 41.28 47.9668 40.9671C47.9668 40.6541 48.2205 40.4004 48.5335 40.4004C48.8464 40.4004 49.1001 40.6541 49.1001 40.9671Z" fill="#4A7337"/>
<path d="M56.4667 38.7V37.5667C56.4667 37.2537 56.2129 37 55.9 37C55.5871 37 55.3333 37.2537 55.3333 37.5667V38.1333H53.0667C52.7537 38.1333 52.5 38.3871 52.5 38.7C52.5 39.0129 52.7537 39.2667 53.0667 39.2667H55.9C56.0503 39.2667 56.1945 39.207 56.3007 39.1007C56.407 38.9945 56.4667 38.8503 56.4667 38.7Z" fill="#4A7337"/>
<path d="M55.9 44.9336H53.6333C53.3204 44.9336 53.0667 45.1873 53.0667 45.5003C53.0667 45.8132 53.3204 46.0669 53.6333 46.0669H55.3333V46.6336C55.3333 46.9465 55.5871 47.2003 55.9 47.2003C56.2129 47.2003 56.4667 46.9465 56.4667 46.6336V45.5003C56.4667 45.35 56.4069 45.2058 56.3007 45.0995C56.1944 44.9933 56.0503 44.9336 55.9 44.9336Z" fill="#4A7337"/>
<path d="M56.4666 48.8997C56.4666 49.2126 56.2128 49.4663 55.8999 49.4663C55.587 49.4663 55.3333 49.2126 55.3333 48.8997C55.3333 48.5867 55.587 48.333 55.8999 48.333C56.2128 48.333 56.4666 48.5867 56.4666 48.8997Z" fill="#4A7337"/>
<path d="M51.9334 45.5003C51.9334 45.8132 51.6796 46.0669 51.3667 46.0669C51.0538 46.0669 50.8 45.8132 50.8 45.5003C50.8 45.1873 51.0538 44.9336 51.3667 44.9336C51.6796 44.9336 51.9334 45.1873 51.9334 45.5003Z" fill="#4A7337"/>
<path d="M53.6334 48.3335H51.9334V47.7669C51.9334 47.4539 51.6796 47.2002 51.3667 47.2002C51.0538 47.2002 50.8 47.4539 50.8 47.7669V48.9002C50.8 49.0505 50.8598 49.1947 50.966 49.3009C51.0723 49.4072 51.2164 49.4669 51.3667 49.4669H53.6334C53.9463 49.4669 54.2 49.2131 54.2 48.9002C54.2 48.5873 53.9463 48.3335 53.6334 48.3335Z" fill="#4A7337"/>
<path d="M50.8001 37C50.4871 37 50.2334 37.2537 50.2334 37.5667V40.9667C50.2334 41.1169 50.2931 41.2611 50.3994 41.3674C50.5056 41.4736 50.6498 41.5333 50.8001 41.5333H53.5625C53.8755 41.5333 54.1292 41.2796 54.1292 40.9667C54.1292 40.6537 53.8755 40.4 53.5625 40.4H51.3667V37.5667C51.3667 37.4164 51.307 37.2722 51.2008 37.166C51.0945 37.0597 50.9503 37 50.8001 37Z" fill="#4A7337"/>
<path d="M52.5001 34.7334H48.5335C48.2205 34.7334 47.9668 34.9871 47.9668 35.3001V38.7001C47.9668 39.013 48.2205 39.2667 48.5335 39.2667C48.8464 39.2667 49.1001 39.013 49.1001 38.7001V35.8667H52.5001C52.8131 35.8667 53.0668 35.613 53.0668 35.3001C53.0668 34.9871 52.8131 34.7334 52.5001 34.7334Z" fill="#4A7337"/>
<path d="M42.3001 46.067H46.8334C46.9837 46.067 47.1279 46.0073 47.2341 45.901C47.3404 45.7948 47.4001 45.6506 47.4001 45.5003V43.2337C47.4001 43.0834 47.3404 42.9392 47.2341 42.8329C47.1279 42.7267 46.9837 42.667 46.8334 42.667H42.3001C41.9871 42.667 41.7334 42.9207 41.7334 43.2337V45.5003C41.7334 45.6506 41.7931 45.7948 41.8994 45.901C42.0056 46.0073 42.1498 46.067 42.3001 46.067ZM42.8667 43.8003H46.2667V44.9337H42.8667V43.8003Z" fill="#4A7337"/>
<path d="M49.0999 51.7337H58.1665C58.3168 51.7337 58.461 51.674 58.5673 51.5677C58.6735 51.4615 58.7332 51.3173 58.7332 51.167V43.2337C58.7332 43.0834 58.6735 42.9392 58.5673 42.8329C58.461 42.7267 58.3168 42.667 58.1665 42.667H49.0999C48.7869 42.667 48.5332 42.9207 48.5332 43.2337V51.167C48.5332 51.3173 48.5929 51.4615 48.6992 51.5677C48.8054 51.674 48.9496 51.7337 49.0999 51.7337ZM49.6665 43.8003H57.5999V50.6003H49.6665V43.8003Z" fill="#4A7337"/>
<path d="M46.2666 40.4004H45.2041C44.8912 40.4004 44.6375 40.6541 44.6375 40.9671C44.6375 41.28 44.8912 41.5337 45.2041 41.5337H46.2666C46.5795 41.5337 46.8333 41.28 46.8333 40.9671C46.8333 40.6541 46.5795 40.4004 46.2666 40.4004Z" fill="#4A7337"/>
<path d="M58.7333 38.7005C58.7333 38.3875 58.4795 38.1338 58.1666 38.1338C57.8537 38.1338 57.5999 38.3875 57.5999 38.7005V40.4005H55.8999C55.587 40.4005 55.3333 40.6542 55.3333 40.9671C55.3333 41.2801 55.587 41.5338 55.8999 41.5338H58.1666C58.3169 41.5338 58.4611 41.4741 58.5673 41.3678C58.6735 41.2616 58.7333 41.1174 58.7333 40.9671V38.7005Z" fill="#4A7337"/>
</svg>
