<svg width="72" height="103" viewBox="0 0 72 103" fill="none" xmlns="http://www.w3.org/2000/svg">
<path d="M63.6003 0H23.2473C21.2819 0.00160121 19.3974 0.783738 18.0077 2.17341C16.6172 3.56316 15.8357 5.44776 15.8335 7.41377V49.2281C12.5985 51.6546 9.02389 53.5927 5.22447 54.98C4.22458 55.3666 3.35758 56.0351 2.7291 56.9045C2.10067 57.7731 1.73802 58.8058 1.68357 59.877C1.45381 64.8909 0.943053 74.435 0.00800554 82.0271C0.00240161 82.0743 0 82.1207 0 82.1672C0.0248164 84.4439 0.337826 86.7079 0.931051 88.9054C1.23367 89.9638 1.41619 91.0532 1.47382 92.1525C1.20563 95.0418 0.722891 97.9077 0.0312122 100.726C-0.112087 101.342 0.268986 101.958 0.883812 102.103C0.971072 102.124 1.05993 102.135 1.1488 102.135C1.68038 102.134 2.1423 101.769 2.26477 101.251C3.00209 98.264 3.50483 95.2235 3.769 92.1582C3.71617 90.8765 3.51283 89.6052 3.16219 88.3709C2.61783 86.3703 2.32722 84.3098 2.29519 82.2362C3.23423 74.5756 3.7514 65.0059 3.97634 59.9713L3.97714 59.9721C4.01077 59.3444 4.22531 58.74 4.59517 58.2317C4.96503 57.7233 5.47418 57.3334 6.06097 57.1085C9.50092 55.8108 12.7792 54.1225 15.8334 52.0753V64.4247C15.0184 63.8739 14.2619 63.332 13.6311 62.8476C13.1284 62.4746 12.4183 62.5738 12.0372 63.0702C11.6554 63.5673 11.7426 64.2782 12.2334 64.6681C13.0627 65.3053 20.455 70.8411 24.3618 70.7139C26.958 70.5994 31.7629 68.2785 35.3375 66.3525C36.6168 65.668 38.0466 65.311 39.498 65.3118H44.443C45.5926 65.3134 46.6941 65.7705 47.5075 66.5831C48.3201 67.3964 48.7772 68.498 48.778 69.6475V70.4385C48.7772 71.3103 48.0703 72.0172 47.1985 72.0188H40.8941C39.2105 72.0236 37.5902 72.6656 36.3614 73.8176C33.0454 76.8934 27.3737 81.0377 27.3167 81.0787H27.3159C27.0741 81.2524 26.91 81.5142 26.8572 81.8072C26.1119 85.8052 24.3923 89.5573 21.8496 92.7325C21.6431 93.0103 21.463 93.252 21.3181 93.4602C20.0188 95.3159 20.1004 100.09 20.1292 101.028C20.1484 101.647 20.6568 102.14 21.2772 102.14H21.3125C21.9465 102.121 22.4444 101.591 22.4244 100.957C22.3628 98.94 22.5621 95.6882 23.2002 94.7764C23.3331 94.585 23.5012 94.3609 23.6925 94.1039H23.6933C24.9005 92.522 25.9598 90.8312 26.8547 89.0539H63.6008C65.5662 89.0515 67.4506 88.2702 68.8404 86.8805C70.2301 85.49 71.0123 83.6056 71.0146 81.6402V7.41433C71.0122 5.44816 70.23 3.56368 68.8404 2.17397C67.4507 0.784258 65.566 0.00199553 63.6008 0.000560935L63.6003 0ZM68.7191 81.6447C68.7175 83.0017 68.1772 84.3026 67.2181 85.2624C66.2582 86.2222 64.9574 86.7618 63.6005 86.7634H27.8668C28.3736 85.4329 28.7658 84.0606 29.038 82.6629C30.3749 81.6758 34.9662 78.2431 37.921 75.5012C38.7264 74.7447 39.7887 74.3204 40.8935 74.3156H47.1979C48.225 74.3148 49.2105 73.9057 49.9365 73.1788C50.6635 72.4527 51.0717 71.4672 51.0725 70.4402V69.6492C51.0709 67.8912 50.3713 66.206 49.1288 64.9628C47.8855 63.7196 46.2004 63.0199 44.4424 63.0183H39.4973C37.6641 63.0167 35.8596 63.4682 34.2441 64.3336C29.5585 66.8585 25.9167 68.3509 24.2523 68.4203C22.8898 68.4523 20.473 67.2947 18.1242 65.8875V7.41344C18.1258 6.0565 18.6653 4.75473 19.6252 3.79581C20.5843 2.83594 21.8851 2.29637 23.2428 2.29477H63.5938C64.9508 2.29638 66.2517 2.83594 67.2115 3.79581C68.1713 4.75488 68.7109 6.05652 68.7125 7.41344L68.7191 81.6447Z" fill="#80848F"/>
<path d="M48.8077 8.56278H51.0596C51.6928 8.56278 52.2068 8.04883 52.2068 7.41478C52.2068 6.78155 51.6928 6.26758 51.0596 6.26758H48.8077C48.1736 6.26758 47.6597 6.78153 47.6597 7.41478C47.6597 8.04883 48.1736 8.56278 48.8077 8.56278Z" fill="#80848F"/>
<path d="M35.7815 8.56278H45.0855C45.7195 8.56278 46.2335 8.04883 46.2335 7.41478C46.2335 6.78155 45.7195 6.26758 45.0855 6.26758H35.7815C35.1475 6.26758 34.6335 6.78153 34.6335 7.41478C34.6335 8.04883 35.1475 8.56278 35.7815 8.56278Z" fill="#80848F"/>
<path d="M56.4171 29.626C55.7831 29.626 55.2699 30.1399 55.2699 30.7732V33.0284C55.2667 35.9312 54.1124 38.7139 52.0606 40.7657C50.0079 42.8184 47.2252 43.9727 44.3232 43.9759H42.5227C39.6199 43.9727 36.8372 42.8183 34.7854 40.7657C32.7335 38.7139 31.579 35.9312 31.576 33.0284V30.7732C31.576 30.14 31.062 29.626 30.428 29.626C29.7947 29.626 29.2808 30.1399 29.2808 30.7732V33.0284C29.2848 36.4964 30.6489 39.8234 33.0785 42.2973C35.5081 44.7709 38.8114 46.1928 42.2778 46.2592V52.381C42.2778 53.0142 42.7917 53.5282 43.4258 53.5282C44.0598 53.5282 44.573 53.0143 44.573 52.381V46.2592C48.0394 46.192 51.3401 44.7686 53.7689 42.2948C56.1979 39.822 57.5603 36.4947 57.565 33.0284V30.7732C57.565 30.469 57.4442 30.1768 57.2288 29.9622C57.0135 29.7469 56.7213 29.626 56.4171 29.626Z" fill="#4A7337"/>
<path d="M25.68 53.5264C25.0459 53.5264 24.532 54.0403 24.532 54.6744V65.7605C24.532 66.3945 25.0459 66.9085 25.68 66.9085C26.3132 66.9085 26.8272 66.3945 26.8272 65.7605V54.6744C26.8272 54.3694 26.7063 54.0779 26.491 53.8626C26.2756 53.6473 25.9842 53.5264 25.68 53.5264Z" fill="#4A7337"/>
<path d="M32.7729 55.8916C32.1389 55.8916 31.6257 56.4056 31.6257 57.0396V62.5259V62.5251C31.6257 63.1591 32.1389 63.6731 32.7729 63.6731C33.407 63.6731 33.9209 63.1591 33.9209 62.5251V57.0396C33.9209 56.7354 33.8001 56.4432 33.5847 56.2279C33.3694 56.0125 33.0771 55.8916 32.7729 55.8916Z" fill="#4A7337"/>
<path d="M39.8682 56.9473C39.2342 56.9473 38.7202 57.4612 38.7202 58.0953V60.7234C38.7202 61.3567 39.2342 61.8706 39.8682 61.8706C40.5014 61.8706 41.0154 61.3567 41.0154 60.7234V58.0953C41.0154 57.7903 40.8945 57.4988 40.6792 57.2835C40.4646 57.0682 40.1724 56.9473 39.8682 56.9473Z" fill="#4A7337"/>
<path d="M46.959 56.9473C46.3257 56.9473 45.8118 57.4612 45.8118 58.0953V61.079C45.8118 61.7131 46.3257 62.227 46.959 62.227C47.593 62.227 48.107 61.7131 48.107 61.079V58.0953C48.107 57.7903 47.9861 57.4988 47.7707 57.2835C47.5554 57.0682 47.264 56.9473 46.959 56.9473Z" fill="#4A7337"/>
<path d="M54.0542 55.8916C53.421 55.8916 52.907 56.4056 52.907 57.0396V67.0586C52.907 67.6926 53.4209 68.2066 54.0542 68.2066C54.6882 68.2066 55.2022 67.6926 55.2022 67.0586V57.0396C55.2022 56.7354 55.0813 56.4432 54.866 56.2279C54.6506 56.0125 54.3592 55.8916 54.0542 55.8916Z" fill="#4A7337"/>
<path d="M61.1473 53.543C60.5132 53.543 59.9993 54.0561 59.9993 54.6902V67.0588C59.9993 67.6929 60.5132 68.2068 61.1473 68.2068C61.7813 68.2068 62.2953 67.6929 62.2953 67.0588V54.6902C62.2953 54.386 62.1744 54.0938 61.959 53.8784C61.7437 53.6639 61.4515 53.543 61.1473 53.543Z" fill="#4A7337"/>
<path d="M51.9658 22.7013C51.6263 20.9217 50.6769 19.3165 49.2823 18.1606C47.8869 17.0046 46.1329 16.3714 44.3212 16.3682H42.5248C40.461 16.3706 38.4819 17.1919 37.0225 18.6514C35.5631 20.1108 34.7417 22.0897 34.7393 24.1545V33.0287V33.0279C34.7377 34.7891 35.3365 36.4976 36.4364 37.8729V37.8801C36.466 37.9194 36.4941 37.9594 36.5261 37.9946C36.5701 38.0547 36.6206 38.1099 36.6766 38.1595C38.1496 39.8471 40.2799 40.8158 42.5191 40.8166H44.3211C46.3857 40.8142 48.3646 39.9936 49.8242 38.5333C51.2836 37.0739 52.105 35.095 52.1075 33.0303V24.1544C52.1059 23.6669 52.0586 23.1809 51.9658 22.7022L51.9658 22.7013ZM40.0232 37.8871C39.7982 37.7766 39.5813 37.6509 39.3739 37.5108L49.8124 31.5427V32.2952L40.0232 37.8871ZM47.1505 19.4726C47.353 19.5975 47.5467 19.7352 47.7309 19.8849L37.0347 25.9908V25.2478L47.1505 19.4726ZM49.4657 22.2947L37.0347 29.3963V28.6318L49.1999 21.6886C49.3007 21.8855 49.3896 22.0872 49.4649 22.2946L49.4657 22.2947ZM37.0347 32.0399L49.8116 24.7397V25.5026L37.0347 32.7989V32.0399ZM37.4798 35.1868L49.8116 28.146V28.9001L37.7953 35.7689H37.7961C37.6792 35.5816 37.5735 35.3869 37.4798 35.1868ZM42.5298 18.66H43.9436L37.3438 22.4306C37.7033 21.3378 38.3966 20.3867 39.3268 19.7104C40.2563 19.0347 41.3754 18.6681 42.5249 18.6632L42.5298 18.66ZM44.3263 38.5146H43.5409L49.357 35.1931L49.3578 35.1939C48.9343 36.1786 48.2314 37.0184 47.3364 37.6092C46.4421 38.2 45.3934 38.5162 44.3215 38.5186L44.3263 38.5146Z" fill="#4A7337"/>
</svg>
