<svg width="72" height="103" viewBox="0 0 72 103" fill="none" xmlns="http://www.w3.org/2000/svg">
<path d="M63.6003 0H23.2473C21.2819 0.00160121 19.3974 0.783738 18.0077 2.17341C16.6172 3.56316 15.8357 5.44776 15.8335 7.41377V49.2281C12.5985 51.6546 9.02389 53.5927 5.22447 54.9799C4.22458 55.3666 3.35758 56.0351 2.7291 56.9045C2.10067 57.7731 1.73802 58.8058 1.68357 59.877C1.45381 64.8909 0.943053 74.435 0.00800554 82.0271C0.00240161 82.0743 0 82.1207 0 82.1672C0.0248164 84.4439 0.337826 86.7079 0.931051 88.9054C1.23367 89.9638 1.41619 91.0532 1.47382 92.1525C1.20563 95.0418 0.722891 97.9077 0.0312122 100.726C-0.112087 101.342 0.268986 101.958 0.883812 102.103C0.971072 102.124 1.05993 102.135 1.1488 102.135C1.68038 102.134 2.1423 101.769 2.26477 101.251C3.00209 98.264 3.50483 95.2235 3.769 92.1582C3.71617 90.8765 3.51283 89.6052 3.16219 88.3709C2.61782 86.3703 2.32722 84.3098 2.29519 82.2362C3.23423 74.5756 3.7514 65.0059 3.97634 59.9713L3.97714 59.9721C4.01077 59.3444 4.22531 58.74 4.59517 58.2317C4.96503 57.7233 5.47418 57.3334 6.06097 57.1085C9.50092 55.8108 12.7792 54.1225 15.8334 52.0753V64.4247C15.0184 63.8739 14.2619 63.3319 13.6311 62.8476C13.1284 62.4746 12.4183 62.5738 12.0372 63.0702C11.6553 63.5673 11.7426 64.2782 12.2334 64.6681C13.0627 65.3053 20.455 70.8411 24.3618 70.7139C26.958 70.5994 31.7629 68.2785 35.3375 66.3525C36.6168 65.668 38.0466 65.311 39.498 65.3118H44.443C45.5926 65.3134 46.6941 65.7705 47.5075 66.5831C48.3201 67.3964 48.7772 68.498 48.778 69.6475V70.4385C48.7772 71.3103 48.0703 72.0172 47.1985 72.0188H40.8941C39.2105 72.0236 37.5902 72.6656 36.3614 73.8176C33.0454 76.8934 27.3737 81.0377 27.3167 81.0787C27.0749 81.2524 26.91 81.5142 26.8572 81.8072C26.1119 85.8052 24.3923 89.5573 21.8496 92.7325C21.6431 93.0103 21.463 93.252 21.3181 93.4602C20.0188 95.3159 20.1004 100.09 20.1292 101.028C20.1484 101.647 20.6568 102.14 21.2772 102.14H21.3125C21.9465 102.121 22.4444 101.591 22.4244 100.957C22.3628 98.94 22.5621 95.6882 23.2002 94.7764C23.3331 94.585 23.5012 94.3609 23.6925 94.1039C24.8997 92.522 25.9598 90.8312 26.8547 89.0539H63.6008C65.5662 89.0515 67.4506 88.2702 68.8404 86.8805C70.2301 85.49 71.0123 83.6056 71.0146 81.6402V7.41433C71.0122 5.44816 70.23 3.56368 68.8404 2.17397C67.4507 0.784258 65.5655 0.00143459 63.6003 0ZM68.7191 81.6447C68.7175 83.0017 68.1772 84.3026 67.2181 85.2624C66.2582 86.2222 64.9574 86.7618 63.6005 86.7634H27.8668C28.3736 85.4329 28.7658 84.0606 29.038 82.6629C30.3749 81.6758 34.9662 78.2431 37.921 75.5012C38.7264 74.7447 39.7887 74.3204 40.8935 74.3156H47.1979C48.225 74.3148 49.2105 73.9057 49.9366 73.1788C50.6635 72.4527 51.0717 71.4672 51.0725 70.4402V69.6492C51.0709 67.8912 50.3713 66.206 49.1288 64.9628C47.8855 63.7196 46.2004 63.0199 44.4424 63.0183H39.4973C37.6641 63.0167 35.8596 63.4682 34.2441 64.3336C29.5585 66.8585 25.9167 68.3509 24.2523 68.4203C22.8898 68.4523 20.473 67.2947 18.1242 65.8875V7.41344C18.1258 6.0565 18.6653 4.75473 19.6252 3.79581C20.5843 2.83594 21.8851 2.29637 23.2428 2.29477H63.5938C64.9508 2.29638 66.2517 2.83594 67.2115 3.79581C68.1713 4.75488 68.7109 6.05652 68.7125 7.41344L68.7191 81.6447Z" fill="#80848F"/>
<path d="M48.8077 8.56278H51.0596C51.6928 8.56278 52.2068 8.04883 52.2068 7.41478C52.2068 6.78155 51.6928 6.26758 51.0596 6.26758H48.8077C48.1736 6.26758 47.6597 6.78153 47.6597 7.41478C47.6597 8.04883 48.1736 8.56278 48.8077 8.56278Z" fill="#80848F"/>
<path d="M35.7815 8.56278H45.0855C45.7195 8.56278 46.2335 8.04883 46.2335 7.41478C46.2335 6.78155 45.7195 6.26758 45.0855 6.26758H35.7815C35.1475 6.26758 34.6335 6.78153 34.6335 7.41478C34.6335 8.04883 35.1475 8.56278 35.7815 8.56278Z" fill="#80848F"/>
<path fill-rule="evenodd" clip-rule="evenodd" d="M34.5161 29.8503C33.2226 29.8503 32.1704 28.7979 32.1704 27.5049C32.1704 26.2114 33.2225 25.1592 34.5161 25.1592C35.8093 25.1592 36.8615 26.2113 36.8615 27.5049C36.8615 28.7979 35.8094 29.8503 34.5161 29.8503ZM38.9234 27.5049C38.9234 25.0747 36.946 23.0973 34.5161 23.0973C32.0859 23.0973 30.1085 25.0747 30.1085 27.5049C30.1085 29.9348 32.0859 31.9122 34.5161 31.9122C36.9461 31.9122 38.9234 29.9348 38.9234 27.5049ZM58.9375 50.6266C58.9375 51.3495 58.3493 51.9379 57.6264 51.9379H33.4453C32.7223 51.9379 32.1339 51.3495 32.1339 50.6266V48.9262H52.553C54.4157 48.9262 55.926 47.4165 55.926 45.5535V25.1354H57.6263C58.3492 25.1354 58.9374 25.7235 58.9374 26.4464L58.9375 50.6266ZM28.3728 46.8646C27.7713 46.8646 27.2685 46.4553 27.1145 45.9023L37.4436 37.4689C37.9375 37.0719 38.5558 36.8936 39.1853 36.9686C39.8144 37.0429 40.375 37.3595 40.7628 37.8609L41.6052 38.9485C42.3487 39.9089 43.4693 40.5246 44.6788 40.6376C45.8869 40.7481 47.1034 40.3522 48.0172 39.5406L53.8647 34.2803V45.553C53.8647 46.2759 53.2763 46.864 52.5534 46.864L28.3728 46.8646ZM27.0615 21.373C27.0615 20.6501 27.6499 20.0617 28.3728 20.0617H52.5532C53.2762 20.0617 53.8646 20.6501 53.8646 21.373V31.5071L46.6425 38.0036C46.1526 38.4391 45.5245 38.647 44.8694 38.5848C44.2168 38.524 43.6364 38.2048 43.2349 37.6864L42.3926 36.5985C41.6629 35.6563 40.6097 35.0606 39.4267 34.9211C38.2431 34.7819 37.0804 35.1156 36.1454 35.8667L27.0613 43.2837L27.0615 21.373ZM57.6268 23.0733H55.9265V21.373C55.9265 19.5103 54.4162 18 52.5535 18H28.373C26.5101 18 25 19.5103 25 21.373V45.554C25 47.4169 26.5101 48.9267 28.373 48.9267H30.0731V50.627C30.0731 52.4897 31.5834 54 33.4461 54H57.6273C59.4899 54 61 52.4897 61 50.627V26.4468C61 24.5841 59.4895 23.0733 57.6268 23.0733Z" fill="#4A7337"/>
</svg>
