<svg width="1220" height="628" viewBox="0 0 1220 628" fill="none" xmlns="http://www.w3.org/2000/svg">
<path d="M587.815 24.2431C560.054 24.1767 532.897 32.3482 509.783 47.723C486.668 63.0979 468.635 84.9849 457.965 110.614C447.295 136.242 444.469 164.46 449.844 191.696C455.22 218.932 468.554 243.96 488.161 263.614C507.767 283.267 532.764 296.662 559.987 302.102C587.209 307.543 615.434 304.784 641.088 294.176C666.743 283.567 688.673 265.586 704.103 242.509C719.533 219.431 727.769 192.294 727.769 164.533C727.791 146.132 724.189 127.907 717.167 110.898C710.146 93.8889 699.843 78.4296 686.847 65.4024C673.851 52.3753 658.416 42.0355 641.424 34.9734C624.432 27.9112 606.216 24.2651 587.815 24.2431ZM587.815 249.808C570.934 249.846 554.421 244.876 540.367 235.525C526.313 226.174 515.349 212.864 508.863 197.278C502.378 181.693 500.662 164.534 503.934 147.973C507.205 131.412 515.317 116.195 527.242 104.246C539.166 92.2982 554.368 84.1567 570.922 80.8525C587.477 77.5484 604.639 79.2302 620.237 85.6851C635.835 92.1399 649.167 103.078 658.546 117.113C667.924 131.149 672.927 147.652 672.922 164.533C672.933 175.72 670.74 186.801 666.469 197.141C662.198 207.481 655.932 216.878 648.029 224.797C640.126 232.715 630.741 239 620.41 243.291C610.078 247.582 599.002 249.797 587.815 249.808Z" fill="#F5F5F5"/>
<path d="M73.2883 481.268C58.8106 481.246 44.6517 485.518 32.6032 493.546C20.5547 501.573 11.1581 512.994 5.60239 526.363C0.0466959 539.732 -1.4184 554.449 1.3925 568.652C4.2034 582.854 11.164 595.903 21.3934 606.148C31.6229 616.393 44.6615 623.374 58.8594 626.206C73.0573 629.039 87.7763 627.596 101.154 622.061C114.532 616.526 125.967 607.147 134.013 595.11C142.058 583.074 146.353 568.922 146.353 554.444H117.686C117.686 563.252 115.073 571.862 110.177 579.184C105.281 586.506 98.3232 592.211 90.1836 595.576C82.0441 598.942 73.089 599.816 64.452 598.09C55.815 596.364 47.8844 592.113 41.6641 585.877C35.4438 579.641 31.2135 571.7 29.5088 563.059C27.804 554.417 28.7014 545.465 32.0874 537.334C35.4733 529.203 41.1956 522.259 48.5298 517.382C55.864 512.504 64.4804 509.913 73.2883 509.935V481.268Z" fill="#F5F5F5"/>
<path d="M1204.38 46.1765L1220 7.92579C1207.16 2.69348 1193.41 0.0418831 1179.54 0.122385C1165.68 0.202887 1151.96 3.01391 1139.18 8.39496C1126.4 13.776 1114.8 21.6217 1105.06 31.4841C1095.31 41.3465 1087.6 53.0324 1082.36 65.8747C1077.13 78.7169 1074.48 92.464 1074.56 106.331C1074.64 120.198 1077.45 133.913 1082.83 146.694C1088.21 159.475 1096.06 171.07 1105.92 180.819C1115.78 190.567 1127.47 198.278 1140.31 203.51L1155.93 165.176C1147.7 162.307 1140.13 157.793 1133.7 151.907C1127.27 146.022 1122.1 138.889 1118.51 130.943C1114.92 122.996 1112.98 114.403 1112.82 105.685C1112.66 96.9669 1114.27 88.3073 1117.57 80.2329C1120.86 72.1585 1125.76 64.8384 1131.97 58.7181C1138.18 52.5977 1145.57 47.8053 1153.69 44.6323C1161.81 41.4594 1170.49 39.9725 1179.21 40.2619C1187.92 40.5514 1196.49 42.6113 1204.38 46.3162V46.1765Z" fill="#F5F5F5"/>
<path d="M363.871 88.4228C364.767 91.0494 364.86 93.8833 364.139 96.5631C363.418 99.2429 361.915 101.647 359.822 103.469C357.729 105.292 355.14 106.449 352.387 106.794C349.633 107.14 346.839 106.657 344.361 105.408C341.883 104.159 339.833 102.2 338.472 99.7816C337.112 97.3628 336.502 94.5936 336.722 91.8272C336.942 89.0607 337.98 86.4224 339.705 84.2485C341.43 82.0747 343.764 80.4639 346.408 79.6216C349.892 78.5118 353.671 78.8118 356.936 80.4573C360.201 82.1028 362.691 84.9625 363.871 88.4228Z" fill="#EBEBEB"/>
<path d="M360.574 84.6788C360.099 85.3773 347.973 77.3024 335.12 64.9247C322.267 52.547 312.181 42.5722 312.768 41.9016C313.354 41.2311 324.614 50.2838 337.327 62.6895C350.04 75.0951 361.077 84.0082 360.574 84.6788Z" fill="#EBEBEB"/>
<path d="M332.13 19.4373C332.912 19.4373 332.382 27.2327 326.542 34.3855C320.702 41.5383 313.27 43.7456 313.103 42.9913C312.935 42.2369 318.97 38.9957 324.279 32.4576C329.588 25.9195 331.236 19.2417 332.13 19.4373Z" fill="#EBEBEB"/>
<path d="M341.91 29.9431C342.72 29.9431 342.496 37.6268 336.321 44.2208C330.147 50.8148 322.351 51.6251 322.351 50.8148C322.351 50.0045 328.61 48.0207 333.974 42.1253C339.339 36.2298 341.015 29.7755 341.91 29.9431Z" fill="#EBEBEB"/>
<path d="M896.447 116.307C894.747 118.49 892.437 120.118 889.811 120.987C887.184 121.855 884.359 121.924 881.693 121.185C879.027 120.446 876.641 118.932 874.837 116.835C873.032 114.738 871.891 112.153 871.557 109.406C871.224 106.66 871.713 103.877 872.964 101.409C874.214 98.9412 876.168 96.9001 878.58 95.5444C880.991 94.1888 883.751 93.5796 886.509 93.794C889.267 94.0084 891.899 95.0369 894.072 96.749C896.972 99.0338 898.849 102.373 899.294 106.038C899.739 109.703 898.716 113.395 896.447 116.307Z" fill="#EBEBEB"/>
<path d="M897.704 111.446C896.866 111.446 896.838 96.8607 899.995 79.286C903.153 61.7114 905.891 47.769 906.645 47.8249C907.4 47.8808 906.198 62.382 903.013 79.8169C899.828 97.2519 898.543 111.474 897.704 111.446Z" fill="#EBEBEB"/>
<path d="M936.151 51.541C936.598 52.2116 929.808 56.0674 920.616 55.2012C911.424 54.335 905.472 49.3616 906.003 48.8028C906.534 48.244 912.597 51.5969 920.895 52.1557C929.194 52.7145 935.844 50.7028 936.151 51.541Z" fill="#EBEBEB"/>
<path d="M932.854 65.5114C933.385 66.1261 926.791 70.2892 917.878 68.7804C908.965 67.2716 903.908 61.3761 904.718 60.957C905.528 60.5379 910.502 64.5893 918.353 65.7628C926.204 66.9363 932.519 64.6731 932.854 65.5114Z" fill="#EBEBEB"/>
<path d="M1164.59 361.039C1164.47 364.341 1163.37 367.532 1161.43 370.21C1159.5 372.888 1156.81 374.935 1153.72 376.093C1150.62 377.251 1147.25 377.469 1144.04 376.719C1140.82 375.969 1137.89 374.285 1135.63 371.878C1133.37 369.472 1131.86 366.449 1131.31 363.192C1130.76 359.934 1131.18 356.585 1132.53 353.567C1133.87 350.549 1136.08 347.996 1138.87 346.228C1141.66 344.461 1144.92 343.558 1148.22 343.632C1150.44 343.682 1152.64 344.175 1154.67 345.08C1156.7 345.986 1158.53 347.286 1160.05 348.906C1161.58 350.526 1162.76 352.433 1163.54 354.516C1164.32 356.599 1164.68 358.817 1164.59 361.039Z" fill="#E0E0E0"/>
<path d="M1162.33 355.34C1161.49 355.955 1150.93 341.621 1141.35 322.063C1131.76 302.504 1124.36 286.746 1125.14 286.271C1125.92 285.796 1135.23 300.912 1144.7 320.386C1154.17 339.861 1163.17 354.781 1162.33 355.34Z" fill="#E0E0E0"/>
<path d="M1156.85 268.584C1157.75 268.919 1153.89 277.637 1144.22 283.42C1134.56 289.204 1125.09 288.645 1125.2 287.695C1125.31 286.745 1133.58 285.572 1142.3 280.235C1151.01 274.898 1155.93 267.997 1156.85 268.584Z" fill="#E0E0E0"/>
<path d="M1163.7 284.733C1164.68 284.985 1161.18 293.814 1151.35 298.703C1141.51 303.593 1132.32 301.497 1132.71 300.492C1133.1 299.486 1141.1 299.905 1149.65 295.378C1158.2 290.852 1162.78 284.174 1163.7 284.733Z" fill="#E0E0E0"/>
<path d="M94.048 174.564C91.8837 175.623 89.4538 176.017 87.0655 175.696C84.6772 175.374 82.438 174.352 80.631 172.757C78.824 171.163 77.5305 169.068 76.9141 166.739C76.2977 164.409 76.386 161.949 77.168 159.67C77.9499 157.39 79.3904 155.394 81.3071 153.933C83.2238 152.473 85.5306 151.613 87.9358 151.464C90.3409 151.314 92.7364 151.882 94.8191 153.094C96.9018 154.306 98.5782 156.109 99.6362 158.274C101.046 161.177 101.25 164.519 100.203 167.572C99.1558 170.624 96.943 173.138 94.048 174.564Z" fill="#E0E0E0"/>
<path d="M96.926 171.211C95.8642 170.68 101.229 158.805 110.561 146.232C119.893 133.659 127.661 123.879 128.611 124.354C129.561 124.829 123.246 136.145 113.97 148.691C104.693 161.236 97.9598 171.742 96.926 171.211Z" fill="#E0E0E0"/>
<path d="M155.434 153.217C155.238 154.167 145.208 152.491 136.071 144.22C132.087 140.787 129.128 136.32 127.521 131.312C126.376 127.344 127.214 124.718 127.717 124.802C128.22 124.886 128.639 127.093 130.315 130.39C132.51 134.499 135.425 138.18 138.921 141.259C147.08 148.663 155.909 152.044 155.434 153.217Z" fill="#E0E0E0"/>
<path d="M120.788 203.51C118.623 204.573 116.192 204.969 113.802 204.649C111.411 204.329 109.17 203.306 107.362 201.711C105.553 200.116 104.259 198.02 103.642 195.689C103.026 193.358 103.115 190.896 103.899 188.616C104.682 186.335 106.125 184.339 108.044 182.879C109.964 181.419 112.273 180.561 114.68 180.415C117.087 180.269 119.483 180.84 121.565 182.056C123.647 183.273 125.321 185.08 126.376 187.249C127.081 188.683 127.496 190.242 127.596 191.837C127.697 193.431 127.481 195.03 126.962 196.541C126.443 198.052 125.63 199.446 124.57 200.642C123.511 201.838 122.225 202.813 120.788 203.51Z" fill="#E0E0E0"/>
<path d="M123.749 200.129C122.687 199.599 128.052 187.836 137.384 175.151C146.716 162.466 154.484 152.798 155.434 153.301C156.384 153.804 150.069 165.092 140.821 177.609C131.573 190.127 124.783 200.716 123.749 200.129Z" fill="#E0E0E0"/>
<path d="M150.824 160.23C150.824 161.32 141.072 160.23 132.215 152.91C123.358 145.589 120.592 136.145 121.654 135.894C122.715 135.642 126.879 143.075 134.925 149.641C142.972 156.207 151.131 159.029 150.824 160.23Z" fill="#E0E0E0"/>
<path d="M838.144 328.768C836.273 331.357 833.542 333.195 830.439 333.953C827.336 334.711 824.065 334.339 821.212 332.904C819.948 332.125 818.869 331.08 818.049 329.842C817.23 328.605 816.689 327.203 816.466 325.736C816.243 324.268 816.342 322.769 816.756 321.344C817.17 319.918 817.89 318.6 818.865 317.48C820.728 314.882 823.46 313.037 826.565 312.279C829.671 311.52 832.946 311.898 835.797 313.345C837.061 314.124 838.14 315.168 838.959 316.406C839.779 317.644 840.319 319.045 840.543 320.513C840.766 321.981 840.667 323.479 840.253 324.905C839.838 326.331 839.119 327.649 838.144 328.768Z" fill="#E0E0E0"/>
<path d="M839.178 324.688C838.004 324.688 837.445 313.009 839.96 298.424C842.475 283.839 844.989 272.328 846.079 272.272C847.169 272.216 846.666 284.091 844.123 298.536C841.581 312.981 840.351 324.549 839.178 324.688Z" fill="#E0E0E0"/>
<path d="M882.877 280.486C883.156 281.324 873.517 285.264 861.698 283.671C856.795 283.188 852.137 281.296 848.286 278.223C845.492 275.764 845.045 273.333 845.492 273.138C845.939 272.942 847.364 274.395 850.27 275.932C854.17 277.976 858.413 279.283 862.787 279.788C873.405 281.269 882.737 279.285 882.877 280.486Z" fill="#E0E0E0"/>
<path d="M874.942 336.982C873.071 339.571 870.34 341.409 867.237 342.167C864.134 342.925 860.863 342.553 858.01 341.117C856.746 340.339 855.666 339.294 854.847 338.056C854.027 336.818 853.487 335.417 853.264 333.949C853.041 332.482 853.139 330.983 853.554 329.558C853.968 328.132 854.687 326.814 855.663 325.694C857.526 323.096 860.257 321.251 863.363 320.492C866.469 319.734 869.744 320.112 872.595 321.559C873.858 322.338 874.938 323.382 875.757 324.62C876.577 325.858 877.117 327.259 877.34 328.727C877.564 330.195 877.465 331.693 877.051 333.119C876.636 334.544 875.917 335.863 874.942 336.982Z" fill="#E0E0E0"/>
<path d="M875.976 332.903C874.802 333.043 874.243 321.224 876.758 306.639C879.273 292.054 881.787 280.542 882.877 280.487C883.967 280.431 883.464 292.305 880.921 306.751C878.378 321.196 877.121 332.763 875.976 332.903Z" fill="#E0E0E0"/>
<path d="M881.927 288.198C882.346 289.092 873.321 293.367 862.145 292.277C850.968 291.187 844.319 285.516 845.157 284.733C845.995 283.951 853.008 287.527 863.067 288.365C873.125 289.204 881.647 287.108 881.927 288.198Z" fill="#E0E0E0"/>
<path d="M339.752 386.381C339.112 389.47 337.572 392.301 335.324 394.514C333.076 396.728 330.223 398.226 327.124 398.818C324.026 399.41 320.821 399.071 317.915 397.842C315.01 396.613 312.534 394.551 310.8 391.915C309.066 389.279 308.153 386.189 308.175 383.034C308.198 379.88 309.155 376.802 310.926 374.192C312.697 371.581 315.202 369.554 318.124 368.366C321.047 367.179 324.256 366.885 327.346 367.521C331.49 368.382 335.123 370.851 337.448 374.386C339.774 377.922 340.602 382.235 339.752 386.381Z" fill="#E0E0E0"/>
<path d="M338.467 380.71C337.07 381.38 329.135 366.404 323.407 346.594C317.679 326.784 313.768 310.886 315.025 310.271C316.282 309.657 323.016 325.276 328.632 344.918C334.248 364.56 339.752 380.067 338.467 380.71Z" fill="#E0E0E0"/>
<path d="M366.603 305.605C367.469 306.583 357.718 315.636 341.82 318.541C335.064 319.953 328.048 319.45 321.563 317.088C316.533 315.105 314.466 312.171 314.941 311.696C315.416 311.221 318.07 312.562 322.68 313.344C328.7 314.359 334.853 314.274 340.842 313.093C355.119 310.578 365.709 304.096 366.603 305.605Z" fill="#E0E0E0"/>
<path d="M391.163 381.604C390.523 384.699 388.979 387.533 386.727 389.749C384.474 391.965 381.614 393.462 378.509 394.05C375.405 394.638 372.195 394.292 369.288 393.054C366.381 391.816 363.907 389.742 362.18 387.096C360.452 384.45 359.55 381.351 359.586 378.192C359.622 375.032 360.596 371.954 362.384 369.349C364.171 366.743 366.693 364.727 369.627 363.557C372.562 362.386 375.779 362.113 378.869 362.772C382.993 363.645 386.604 366.117 388.908 369.647C391.213 373.178 392.023 377.477 391.163 381.604Z" fill="#E0E0E0"/>
<path d="M390.045 375.932C388.676 376.603 380.713 361.654 374.985 341.817C369.257 321.979 365.346 306.136 366.603 305.494C367.86 304.851 374.594 320.47 380.21 340.112C385.826 359.754 391.358 375.289 390.045 375.932Z" fill="#E0E0E0"/>
<path d="M370.124 315.916C371.213 316.894 362.44 326.17 347.771 329.411C333.102 332.652 321.116 328.126 321.675 326.785C322.233 325.443 333.298 327.092 346.542 323.991C359.786 320.889 369.118 314.63 370.124 315.916Z" fill="#E0E0E0"/>
<path d="M836.135 533.21C834.57 534.179 832.753 534.663 830.913 534.599C829.073 534.535 827.294 533.927 825.8 532.852C824.306 531.776 823.164 530.282 822.52 528.558C821.876 526.833 821.757 524.957 822.18 523.165C822.602 521.373 823.546 519.747 824.893 518.492C826.24 517.238 827.929 516.411 829.746 516.116C831.563 515.821 833.427 516.072 835.102 516.837C836.776 517.602 838.186 518.847 839.153 520.413C840.448 522.511 840.857 525.036 840.291 527.436C839.725 529.835 838.231 531.912 836.135 533.21Z" fill="#E0E0E0"/>
<path d="M838.063 530.555C837.225 530.22 840.382 520.86 846.445 510.494C852.508 500.128 857.621 492.137 858.46 492.5C859.298 492.863 855.302 501.86 849.239 512.059C843.176 522.257 838.901 530.863 838.063 530.555Z" fill="#E0E0E0"/>
<path d="M881.12 512.394C881.12 513.148 873.324 512.645 865.724 507.085C862.431 504.772 859.833 501.603 858.208 497.921C857.035 494.987 857.482 492.947 857.873 492.947C858.264 492.947 858.739 494.624 860.248 496.887C862.238 499.846 864.746 502.42 867.652 504.487C874.442 509.516 881.399 511.416 881.12 512.394Z" fill="#E0E0E0"/>
<path d="M858.767 553.216C857.2 554.181 855.382 554.66 853.542 554.591C851.703 554.523 849.926 553.911 848.434 552.832C846.943 551.754 845.805 550.257 845.165 548.532C844.524 546.806 844.41 544.93 844.836 543.139C845.262 541.349 846.209 539.725 847.559 538.473C848.908 537.221 850.598 536.398 852.415 536.106C854.232 535.815 856.095 536.07 857.768 536.837C859.441 537.605 860.848 538.851 861.812 540.419C863.105 542.52 863.51 545.048 862.939 547.448C862.368 549.847 860.867 551.922 858.767 553.216Z" fill="#E0E0E0"/>
<path d="M860.695 550.449C859.856 550.114 863.014 540.753 869.077 530.415C875.14 520.077 880.253 512.03 881.091 512.394C881.93 512.757 877.962 521.754 871.899 531.952C865.836 542.15 861.533 550.756 860.695 550.449Z" fill="#E0E0E0"/>
<path d="M878.158 518.01C878.158 518.848 870.753 518.848 863.461 513.903C856.168 508.957 853.318 502.084 854.129 501.805C854.939 501.525 858.655 506.834 865.305 511.221C871.955 515.607 878.297 517.06 878.158 518.01Z" fill="#E0E0E0"/>
</svg>
