<svg width="62" height="39" viewBox="0 0 62 39" fill="none" xmlns="http://www.w3.org/2000/svg">
<path d="M11.29 27.4699C10.8922 27.4699 10.5107 27.3119 10.2294 27.0306C9.94807 26.7493 9.79004 26.3677 9.79004 25.9699V12.4199C9.79004 12.0221 9.94807 11.6406 10.2294 11.3593C10.5107 11.078 10.8922 10.9199 11.29 10.9199C11.6879 10.9199 12.0694 11.078 12.3507 11.3593C12.632 11.6406 12.79 12.0221 12.79 12.4199V25.9699C12.79 26.3677 12.632 26.7493 12.3507 27.0306C12.0694 27.3119 11.6879 27.4699 11.29 27.4699Z" fill="#E0E0E0"/>
<path d="M6.37988 25.6799C5.98206 25.6799 5.60053 25.5219 5.31923 25.2406C5.03792 24.9593 4.87988 24.5777 4.87988 24.1799V14.1699C4.87988 13.7721 5.03792 13.3906 5.31923 13.1093C5.60053 12.828 5.98206 12.6699 6.37988 12.6699C6.77771 12.6699 7.15924 12.828 7.44054 13.1093C7.72185 13.3906 7.87988 13.7721 7.87988 14.1699V24.1699C7.8812 24.3677 7.84338 24.5639 7.76859 24.747C7.69379 24.9302 7.58352 25.0967 7.4441 25.237C7.30468 25.3774 7.13887 25.4888 6.95623 25.5648C6.77359 25.6408 6.57771 25.6799 6.37988 25.6799Z" fill="#E0E0E0"/>
<path d="M1.47004 25.6799C1.0757 25.672 0.700326 25.5092 0.425199 25.2265C0.150071 24.9439 -0.00267275 24.5643 3.54064e-05 24.1699V14.1699C3.54064e-05 13.7721 0.15807 13.3906 0.439374 13.1093C0.720679 12.828 1.10221 12.6699 1.50004 12.6699C1.89786 12.6699 2.27939 12.828 2.5607 13.1093C2.842 13.3906 3.00004 13.7721 3.00004 14.1699V24.1699C3.00141 24.3703 2.96263 24.5689 2.88598 24.754C2.80932 24.9392 2.69635 25.1071 2.55373 25.2478C2.41111 25.3886 2.24174 25.4993 2.05561 25.5735C1.86948 25.6478 1.67037 25.6839 1.47004 25.6799Z" fill="#E0E0E0"/>
<path d="M60.3701 25.6799C59.9723 25.6799 59.5908 25.5219 59.3095 25.2406C59.0282 24.9593 58.8701 24.5777 58.8701 24.1799V14.1699C58.8701 13.7721 59.0282 13.3906 59.3095 13.1093C59.5908 12.828 59.9723 12.6699 60.3701 12.6699C60.7679 12.6699 61.1495 12.828 61.4308 13.1093C61.7121 13.3906 61.8701 13.7721 61.8701 14.1699V24.1699C61.8714 24.3677 61.8336 24.5639 61.7588 24.747C61.684 24.9302 61.5737 25.0967 61.4343 25.237C61.2949 25.3774 61.1291 25.4888 60.9465 25.5648C60.7638 25.6408 60.5679 25.6799 60.3701 25.6799Z" fill="#E0E0E0"/>
<path d="M55.47 25.6799C55.0757 25.672 54.7003 25.5092 54.4252 25.2265C54.1501 24.9439 53.9973 24.5643 54 24.1699V14.1699C54 13.7721 54.1581 13.3906 54.4394 13.1093C54.7207 12.828 55.1022 12.6699 55.5 12.6699C55.8979 12.6699 56.2794 12.828 56.5607 13.1093C56.842 13.3906 57 13.7721 57 14.1699V24.1699C57.0014 24.3703 56.9626 24.5689 56.886 24.754C56.8093 24.9392 56.6963 25.1071 56.5537 25.2478C56.4111 25.3886 56.2417 25.4993 56.0556 25.5735C55.8695 25.6478 55.6704 25.6839 55.47 25.6799Z" fill="#E0E0E0"/>
<path d="M16.2002 27.4699C15.8024 27.4699 15.4208 27.3119 15.1395 27.0306C14.8582 26.7493 14.7002 26.3677 14.7002 25.9699V12.4199C14.7002 12.0221 14.8582 11.6406 15.1395 11.3593C15.4208 11.078 15.8024 10.9199 16.2002 10.9199C16.598 10.9199 16.9796 11.078 17.2609 11.3593C17.5422 11.6406 17.7002 12.0221 17.7002 12.4199V25.9699C17.7002 26.3677 17.5422 26.7493 17.2609 27.0306C16.9796 27.3119 16.598 27.4699 16.2002 27.4699Z" fill="#E0E0E0"/>
<path d="M21.1104 29.8503C20.7125 29.8503 20.331 29.6922 20.0497 29.4109C19.7684 29.1296 19.6104 28.7481 19.6104 28.3503V10.0303C19.6104 9.63245 19.7684 9.25092 20.0497 8.96962C20.331 8.68832 20.7125 8.53027 21.1104 8.53027C21.5082 8.53027 21.8897 8.68832 22.171 8.96962C22.4523 9.25092 22.6104 9.63245 22.6104 10.0303V28.3503C22.6104 28.7481 22.4523 29.1296 22.171 29.4109C21.8897 29.6922 21.5082 29.8503 21.1104 29.8503Z" fill="#E0E0E0"/>
<path d="M26 33.6103C25.603 33.6077 25.223 33.4488 24.9422 33.168C24.6615 32.8873 24.5026 32.5073 24.5 32.1103V6.28027C24.5 5.88245 24.658 5.50092 24.9393 5.21962C25.2206 4.93832 25.6022 4.78027 26 4.78027C26.3978 4.78027 26.7794 4.93832 27.0607 5.21962C27.342 5.50092 27.5 5.88245 27.5 6.28027V32.1103C27.5 32.5081 27.342 32.8896 27.0607 33.1709C26.7794 33.4522 26.3978 33.6103 26 33.6103Z" fill="#E0E0E0"/>
<path d="M50.5601 27.4699C50.1622 27.4699 49.7807 27.3119 49.4994 27.0306C49.2181 26.7493 49.0601 26.3677 49.0601 25.9699V12.4199C49.0601 12.0221 49.2181 11.6406 49.4994 11.3593C49.7807 11.078 50.1622 10.9199 50.5601 10.9199C50.9579 10.9199 51.3394 11.078 51.6207 11.3593C51.902 11.6406 52.0601 12.0221 52.0601 12.4199V25.9699C52.0601 26.3677 51.902 26.7493 51.6207 27.0306C51.3394 27.3119 50.9579 27.4699 50.5601 27.4699Z" fill="#E0E0E0"/>
<path d="M45.6499 27.4699C45.2521 27.4699 44.8705 27.3119 44.5892 27.0306C44.3079 26.7493 44.1499 26.3677 44.1499 25.9699V12.4199C44.1499 12.0221 44.3079 11.6406 44.5892 11.3593C44.8705 11.078 45.2521 10.9199 45.6499 10.9199C46.0477 10.9199 46.4293 11.078 46.7106 11.3593C46.9919 11.6406 47.1499 12.0221 47.1499 12.4199V25.9699C47.1499 26.3677 46.9919 26.7493 46.7106 27.0306C46.4293 27.3119 46.0477 27.4699 45.6499 27.4699Z" fill="#E0E0E0"/>
<path d="M40.7402 29.8503C40.3424 29.8503 39.9609 29.6922 39.6796 29.4109C39.3983 29.1296 39.2402 28.7481 39.2402 28.3503V10.0303C39.2402 9.63245 39.3983 9.25092 39.6796 8.96962C39.9609 8.68832 40.3424 8.53027 40.7402 8.53027C41.1381 8.53027 41.5196 8.68832 41.8009 8.96962C42.0822 9.25092 42.2402 9.63245 42.2402 10.0303V28.3503C42.2402 28.7481 42.0822 29.1296 41.8009 29.4109C41.5196 29.6922 41.1381 29.8503 40.7402 29.8503Z" fill="#E0E0E0"/>
<path d="M35.8301 33.6103C35.4323 33.6103 35.0507 33.4522 34.7694 33.1709C34.4881 32.8896 34.3301 32.5081 34.3301 32.1103V6.28027C34.3301 5.88245 34.4881 5.50092 34.7694 5.21962C35.0507 4.93832 35.4323 4.78027 35.8301 4.78027C36.2279 4.78027 36.6094 4.93832 36.8907 5.21962C37.172 5.50092 37.3301 5.88245 37.3301 6.28027V32.1103C37.3301 32.5081 37.172 32.8896 36.8907 33.1709C36.6094 33.4522 36.2279 33.6103 35.8301 33.6103Z" fill="#E0E0E0"/>
<path d="M30.9199 38.38C30.5221 38.38 30.1406 38.222 29.8593 37.9407C29.578 37.6594 29.4199 37.2778 29.4199 36.88V1.5C29.4199 1.10218 29.578 0.720636 29.8593 0.439331C30.1406 0.158026 30.5221 0 30.9199 0C31.3177 0 31.6993 0.158026 31.9806 0.439331C32.2619 0.720636 32.4199 1.10218 32.4199 1.5V36.88C32.4199 37.2778 32.2619 37.6594 31.9806 37.9407C31.6993 38.222 31.3177 38.38 30.9199 38.38Z" fill="#E0E0E0"/>
</svg>
